:SAMPLES-PER-SECOND 30
:FULLY-SPECIFIED
:DEGREES
246
root  114.082 18.2633 2.59162 -167.518 56.3295 120.66
RightUpLeg  -43.2021 -30.3593 7.55648
RightLeg  84.7234 12.0915 14.8746
RightFoot  -33.0452 12.1704 62.479
RightToes  1.16415e-010 -3.18055e-015 8.94531e-016
Spine  3.61418 -11.5745 -19.4482
Spine1  34.0279 -52.0887 72.9339
HEad  8.70205 -0.584024 173.744
LeftShoulder1  0 -2.69403e-036 -1.28585e-037
LeftArm  36.384 -29.9081 -70.454
LeftForeArm  112.173 -32.7961 24.5181
LeftHand  -10.571 2.71081 120.458
RightShoulder  -2.48481e-017 0 -8.08114e-019
RightArm  64.4811 -16.0319 -110.935
RightForeArm  -62.9821 11.6628 178.594
RightHand  2.05795 28.8095 15.7377
LeftUpLeg  -99.1997 -30.4052 9.519
LeftLeg  116.366 -7.44223 -12.6399
LeftFoot  13.0215 0.984789 -4.01863
LeftToes  4.502e-010 -1.85808e-011 5.37561e-011
247
root  114.731 18.3868 2.24478 -163.669 55.9686 125.146
RightUpLeg  -42.9336 -30.3296 9.46514
RightLeg  86.5377 11.6544 14.8654
RightFoot  -33.8047 13.2723 65.0188
RightToes  1.16415e-010 -3.18055e-015 8.94531e-016
Spine  0.522492 -11.363 -16.3637
Spine1  33.5987 -53.616 75.9844
HEad  9.74592 4.14148 173.926
LeftShoulder1  0 -2.69403e-036 -1.28585e-037
LeftArm  33.3109 -28.1251 -70.457
LeftForeArm  128.144 -46.4778 30.4764
LeftHand  -21.359 -0.939938 123.446
RightShoulder  -2.48481e-017 0 -8.08114e-019
RightArm  71.9887 -20.8716 -113.812
RightForeArm  -52.6614 12.4363 179.063
RightHand  1.10061 28.0314 12.6925
LeftUpLeg  -97.152 -30.194 12.1904
LeftLeg  115.102 -6.82449 -14.5454
LeftFoot  12.2231 0.749002 -3.12992
LeftToes  4.502e-010 -1.85808e-011 5.37561e-011
248
root  115.25 18.5444 1.90385 -159.239 57.0598 129.344
RightUpLeg  -45.055 -29.2379 11.4108
RightLeg  90.1786 10.7808 14.8003
RightFoot  -34.9041 14.5316 67.0099
RightToes  1.16415e-010 -3.18055e-015 8.94531e-016
Spine  -3.51747 -10.5652 -12.495
Spine1  33.788 -54.4921 77.3294
HEad  10.7306 8.41502 173.32
LeftShoulder1  0 -2.69403e-036 -1.28585e-037
LeftArm  32.0851 -29.8684 -64.9367
LeftForeArm  98.9252 -61.9534 53.5877
LeftHand  -50.0828 -11.1547 127.217
RightShoulder  -2.48481e-017 0 -8.08114e-019
RightArm  99.0304 -21.1754 -123.349
RightForeArm  -33.0221 13.463 179.323
RightHand  -0.233913 28.2852 8.48899
LeftUpLeg  -96.1898 -28.8237 14.9213
LeftLeg  113.68 -6.09727 -17.0336
LeftFoot  11.8772 0.710265 -3.00765
LeftToes  4.502e-010 -1.85808e-011 5.37561e-011
249
root  115.711 18.732 1.59222 -154.905 59.1594 133.103
RightUpLeg  -48.8893 -27.7363 13.1125
RightLeg  95.1384 9.5055 15.3781
RightFoot  -37.703 16.6043 67.6024
RightToes  1.16415e-010 -3.18055e-015 8.94531e-016
Spine  -8.57836 -9.62622 -9.15742
Spine1  35.3007 -55.8081 77.3008
HEad  11.2789 12.6785 173.213
LeftShoulder1  0 -2.69403e-036 -1.28585e-037
LeftArm  23.9346 -28.4399 -37.5227
LeftForeArm  15.8888 -73.2523 117.942
LeftHand  -57.9722 -14.5874 126.889
RightShoulder  -2.48481e-017 0 -8.08114e-019
RightArm  125.247 -33.9525 -138.969
RightForeArm  -1.99792 15.4777 179.663
RightHand  -2.76354 24.0958 -2.05079
LeftUpLeg  -95.2923 -26.7932 17.0218
LeftLeg  112.211 -5.47784 -19.6597
LeftFoot  11.7221 0.789072 -3.38186
LeftToes  4.502e-010 -1.85808e-011 5.37561e-011
250
root  115.997 18.6611 1.30934 -143.811 61.7006 138.648
RightUpLeg  -59.5273 -23.3692 17.644
RightLeg  101.194 7.96435 15.4664
RightFoot  -41.6931 19.2127 67.1911
RightToes  1.16415e-010 -3.18055e-015 8.94531e-016
Spine  -10.9609 -1.2186 -6.78173
Spine1  27.7314 -44.9877 82.4423
HEad  13.5313 21.2772 179.087
LeftShoulder1  0 -2.69403e-036 -1.28585e-037
LeftArm  4.73239 -4.87128 6.22079
LeftForeArm  -31.236 -39.1397 174.336
LeftHand  -40.0125 -8.21735 124.709
RightShoulder  -2.48481e-017 0 -8.08114e-019
RightArm  119.24 -55.0955 -133.649
RightForeArm  11.488 29.687 -172.072
RightHand  -4.16595 19.6117 -9.50291
LeftUpLeg  -99.8015 -21.5844 20.2736
LeftLeg  111.484 -4.74799 -22.1349
LeftFoot  11.4186 0.836041 -3.64202
LeftToes  4.502e-010 -1.85808e-011 5.37561e-011
251
root  116.033 18.2907 1.07264 -124.356 63.5618 147.148
RightUpLeg  -76.4911 -15.1801 24.669
RightLeg  107.789 6.52504 14.4068
RightFoot  -45.0495 21.3988 66.834
RightToes  1.16415e-010 -3.18055e-015 8.94531e-016
Spine  -22.497 8.28196 -1.36275
Spine1  23.6887 -34.8894 82.2937
HEad  17.6468 32.5572 -171.964
LeftShoulder1  0 -2.69403e-036 -1.28585e-037
LeftArm  -7.83718 8.02478 27.9732
LeftForeArm  -29.2198 -12.9886 -176.83
LeftHand  -27.3371 -3.04696 124.527
RightShoulder  -2.48481e-017 0 -8.08114e-019
RightArm  109.814 -66.7776 -126.594
RightForeArm  26.0036 50.1466 -150.968
RightHand  -4.72013 17.4179 -14.0541
LeftUpLeg  -110.077 -12.7863 24.292
LeftLeg  111.571 -3.97915 -23.9556
LeftFoot  11.1835 0.80724 -3.5494
LeftToes  4.502e-010 -1.85808e-011 5.37561e-011
252
root  116.152 18.2008 0.894766 -113.558 64.3348 153.297
RightUpLeg  -86.7683 -11.0967 27.8812
RightLeg  114.089 4.509 14.9194
RightFoot  -48.0285 22.7245 65.1426
RightToes  1.16415e-010 -3.18055e-015 8.94531e-016
Spine  -39.0069 9.77402 9.69863
Spine1  36.7398 -39.1783 66.8451
HEad  19.8552 40.8322 -167.278
LeftShoulder1  0 -2.69403e-036 -1.28585e-037
LeftArm  -6.85772 2.22489 22.3959
LeftForeArm  -32.8174 -17.0745 -177.257
LeftHand  -28.0869 -3.96502 122.594
RightShoulder  -2.48481e-017 0 -8.08114e-019
RightArm  81.0148 -82.8645 -103.195
RightForeArm  61.6611 59.7751 -125.978
RightHand  -3.48499 8.17637 -20.5764
LeftUpLeg  -113.516 -8.33782 25.3096
LeftLeg  111.419 -3.96186 -24.1733
LeftFoot  10.872 0.668908 -2.95508
LeftToes  4.502e-010 -1.85808e-011 5.37561e-011
253
root  116.27 18.1323 0.684381 -113.464 65.2114 151.127
RightUpLeg  -95.9256 -12.0574 27.9511
RightLeg  120.702 0.816609 17.3475
RightFoot  -51.94 23.6854 61.5095
RightToes  1.16415e-010 -3.18055e-015 8.94531e-016
Spine  -52.0555 10.6828 17.5833
Spine1  52.4132 -43.206 51.1138
HEad  26.1341 47.4695 -157.746
LeftShoulder1  0 -2.69403e-036 -1.28585e-037
LeftArm  4.0942 4.9252 19.6923
LeftForeArm  -38.2338 -11.7532 -170.692
LeftHand  -37.2785 -8.56625 120.91
RightShoulder  -2.48481e-017 0 -8.08114e-019
RightArm  -12.0113 -78.7733 -20.6843
RightForeArm  93.4941 62.7461 -102.189
RightHand  -2.43258 -1.51768 -28.3462
LeftUpLeg  -114.845 -9.12447 23.8568
LeftLeg  110.999 -4.77976 -22.5806
LeftFoot  10.6833 0.546445 -2.41399
LeftToes  4.502e-010 -1.85808e-011 5.37561e-011
